<mxfile host="app.diagrams.net" modified="2023-09-03T11:28:46.232Z" agent="Mozilla/5.0 (X11; Linux x86_64) AppleWebKit/537.36 (KHTML, like Gecko) Chrome/116.0.0.0 Safari/537.36" version="21.7.2" etag="PKGYdWEhtY8tVu3S_jin" type="github">
  <diagram name="Page-1" id="m0o_hjmqd9_ioD-kD6_M">
    <mxGraphModel>
      <root>
        <mxCell id="0" />
        <mxCell id="1" parent="0" />
      </root>
    </mxGraphModel>
  </diagram>
</mxfile>
